<svg xmlns="http://www.w3.org/2000/svg" viewBox="0 0 64 64">
  <defs><linearGradient id="g" x1="10" y1="8" x2="55" y2="58" gradientUnits="userSpaceOnUse"><stop stop-color="#fb923c"/><stop offset=".55" stop-color="#f97316"/><stop offset="1" stop-color="#ec4899"/></linearGradient></defs>
  <path d="M7.5 29.2 28.1 10.5a5.8 5.8 0 0 1 7.8 0l20.6 18.7c3.7 3.4 1.3 9.5-3.7 9.5h-1.5v13.1a6.2 6.2 0 0 1-6.2 6.2H18.9a6.2 6.2 0 0 1-6.2-6.2V38.7h-1.5c-5 0-7.4-6.1-3.7-9.5Z" fill="url(#g)"/>
  <path d="M25 27.5v8.1M29.7 27.5v8.1M34.4 27.5v8.1M39 27.5v8.1M25 35.6c0 4.3 3.1 7.2 7 7.2s7-2.9 7-7.2M32 42.8v10" fill="none" stroke="#fff" stroke-width="3.2" stroke-linecap="round" stroke-linejoin="round"/>
</svg>
